<svg width="1440" height="153" viewBox="0 0 1440 153" fill="none" xmlns="http://www.w3.org/2000/svg">
<path d="M1441.75 152.009L1423.3 145.285C1404.85 138.444 1367.96 124.995 1331.06 106.783C1294.16 88.5702 1257.26 65.827 1220.06 72.5929C1183.02 79.3586 1145.52 115.866 1108.48 122.632C1071.28 129.397 1034.38 106.654 997.496 105.52C960.611 104.386 923.742 124.86 886.863 132.439C849.984 140.018 813.095 134.701 775.879 119.974C738.824 105.247 701.28 81.3428 664.235 80.9056C627.029 80.5846 590.162 103.847 553.284 112.239C516.405 120.515 479.516 114.037 442.621 99.5422C405.726 85.0475 368.825 62.5367 331.624 68.3731C294.583 74.2094 257.083 108.393 220.048 122.13C182.853 135.866 145.964 129.387 109.073 120.702C72.1819 112.016 35.2893 101.123 16.8431 95.7922L-1.60314 90.3456L-1.67387 -4.91913L16.7684 -4.93283C35.2106 -4.94652 72.095 -4.97391 108.979 -5.0013C145.864 -5.02868 182.748 -5.05607 219.954 -5.0837C256.998 -5.1112 294.524 -5.13907 331.569 -5.16657C368.774 -5.1942 405.659 -5.22158 442.543 -5.24897C479.428 -5.27636 516.312 -5.30375 553.197 -5.33113C590.081 -5.35852 626.965 -5.38591 664.171 -5.41353C701.215 -5.44104 738.741 -5.4689 775.786 -5.49641C812.991 -5.52404 849.876 -5.55142 886.76 -5.57881C923.645 -5.6062 960.529 -5.63359 997.414 -5.66097C1034.3 -5.68836 1071.18 -5.71575 1108.39 -5.74337C1145.43 -5.77088 1182.96 -5.79874 1220 -5.82625C1257.21 -5.85388 1294.09 -5.88126 1330.98 -5.90865C1367.86 -5.93604 1404.75 -5.96342 1423.19 -5.97712L1441.63 -5.99081L1441.75 152.009Z" fill="#3D0963"/>
</svg>
